<?xml version="1.0" encoding="utf-8"?>
<!-- Generator: Adobe Illustrator 26.0.1, SVG Export Plug-In . SVG Version: 6.00 Build 0)  -->
<svg version="1.1" id="Warstwa_1" xmlns="http://www.w3.org/2000/svg" xmlns:xlink="http://www.w3.org/1999/xlink" x="0px" y="0px"
	 viewBox="0 0 456.5 456.5" style="enable-background:new 0 0 456.5 456.5;" xml:space="preserve">
<style type="text/css">
	.st0{fill:#B6DCF6;}
	.st1{fill:#4C6789;stroke:#78A5D8;stroke-miterlimit:10;}
	.st2{fill:url(#SVGID_1_);}
	.st3{fill:url(#SVGID_00000075867246160654218060000007977479866408865706_);}
	.st4{fill:#3087C8;stroke:#2B5377;stroke-width:3;stroke-miterlimit:10;}
	.st5{fill:none;stroke:#3087C8;stroke-width:8;stroke-linecap:round;stroke-miterlimit:10;}
</style>
<g>
	<path class="st0" d="M426.5,179.2c3.9,15.8,6,32.3,6,49.3c0,112.5-91.5,204-204,204c-65.1,0-123.1-30.6-160.5-78.2l-22.1,10.8
		c6.5,8.6,13.6,16.9,21.4,24.6c42.6,42.6,99.2,66.3,159.4,66.8c60.2,0.5,118.4-23,161.4-65.2c44.1-43.2,68.4-101.2,68.4-162.8
		c0-20.6-2.7-40.7-8-60.1L426.5,179.2z"/>
	<path class="st1" d="M53.1,332.6C34.9,302,24.4,266.3,24.5,228.2c0.2-112.3,92.1-203.9,204.4-203.7c86.1,0.2,159.8,54,189.6,129.7
		l21.7-10.6c-16.8-42-46.3-78.8-86.5-105.8c-24.1-16.2-51.2-27.3-79.6-32.8C182.5-12.8,93.1,23.6,40,100
		c-17.9,25.7-30.1,55.1-35.6,86c-10.1,56,0,111,27,157.3L53.1,332.6z"/>
</g>
<g>
	<linearGradient id="SVGID_1_" gradientUnits="userSpaceOnUse" x1="65.7001" y1="271.1098" x2="331.5085" y2="271.1098">
		<stop  offset="0" style="stop-color:#144C72"/>
		<stop  offset="0.2536" style="stop-color:#13496E"/>
		<stop  offset="1" style="stop-color:#3087C8"/>
	</linearGradient>
	<path class="st2" d="M318,341c-9,7.2-18.9,13.5-29.9,18.6c-72.2,33.6-158.3,2.1-191.9-70.1c-19.4-41.8-17.1-88.2,2.3-126.4
		l-13.5-11c-3.6,6.7-6.8,13.8-9.4,21.1c-14.7,40.1-13,83.5,4.7,122.3c17.7,38.8,50.1,69.2,90,84.2c40.9,15.4,85.4,13.7,125-4.7
		c13.2-6.1,25.3-13.9,36.2-23L318,341z"/>
	
		<linearGradient id="SVGID_00000124147022137001569760000006924478306188572828_" gradientUnits="userSpaceOnUse" x1="94.7437" y1="203.0329" x2="389.0297" y2="203.0329">
		<stop  offset="5.327789e-09" style="stop-color:#3087C8"/>
		<stop  offset="1" style="stop-color:#13496E"/>
	</linearGradient>
	<path style="fill:url(#SVGID_00000124147022137001569760000006924478306188572828_);" d="M108.1,147c14.2-20.8,34-38.2,58.5-49.6
		C238.8,64.1,325,95.8,358.4,168c25.6,55.3,13,118.8-26.7,160.4l13.3,10.8c21.9-23.3,36.8-53.3,42.2-87.1c3.2-20.3,2.3-41-2.7-60.9
		c-16-64.1-66-110.7-130.9-122c-21.9-3.8-44.4-2.9-65.8,2.8c-39,10.2-71.3,33.1-93,64.3L108.1,147z"/>
</g>
<g>
	<path class="st4" d="M168.3,244.4h23.5c0,0.6,0.1,1.3,0.1,2c0,0.7,0,1.8,0,3.2c0,12.5-2.7,21.8-8.2,27.8c-5.5,6-13.9,9.1-25.2,9.1
		c-6.6,0-12.3-1.1-17.1-3.3s-8.6-5.6-11.5-10c-2-3.2-3.5-7.6-4.4-13.3c-0.9-5.7-1.3-14.7-1.3-27c0-12.3,0.4-21.3,1.3-27
		c0.9-5.7,2.3-10.1,4.4-13.3c2.9-4.4,6.7-7.8,11.4-10c4.7-2.2,10.3-3.4,16.8-3.4c11.2,0,19.6,3.1,25.2,9.3
		c5.6,6.2,8.4,15.5,8.4,27.9v1l-23.3-0.1c-0.1-7-0.9-11.8-2.4-14.7c-1.5-2.8-4-4.2-7.6-4.2c-3.9,0-6.5,1.7-7.9,5.2
		c-1.4,3.4-2.1,12.5-2.1,27.2v1.9c0,15.8,0.7,25.5,2.1,29.1s4.1,5.3,7.9,5.3c3.6,0,6.1-1.3,7.5-3.9c1.4-2.6,2.2-7.4,2.2-14.5V244.4z
		"/>
	<path class="st4" d="M207.5,284V181.7H231c8.7,0,15.1,0.4,19.2,1.1c4.1,0.8,7.6,2,10.5,3.8c3.8,2.3,6.6,5.7,8.6,10.3
		c2,4.5,3,10,3,16.2c0,10.4-2.7,18.2-8.2,23.6c-5.5,5.4-13.5,8.1-24.1,8.1h-8.4V284H207.5z M231.6,225.7c0.4,0,0.8,0.1,1.2,0.1
		c0.5,0,1.1,0.1,2,0.1c4.8,0,8.2-1.1,10.4-3.4c2.1-2.2,3.2-5.8,3.2-10.8c0-4.1-1.1-7.1-3.4-8.9c-2.3-1.8-6-2.7-11.3-2.7h-2.1V225.7z
		"/>
	<path class="st4" d="M297.6,284v-82.5h-19.1v-19.9h63.3v19.9h-20.1V284H297.6z"/>
</g>
<path class="st5" d="M440.6,157.4l-37.7,19.1c0,0,38.9,87.6-47,183.1l-27.8-22.4"/>
</svg>
